<?xml version="1.0" encoding="utf-8"?>
<!-- Generator: Adobe Illustrator 25.0.1, SVG Export Plug-In . SVG Version: 6.00 Build 0)  -->
<svg version="1.1" id="katman_1" xmlns="http://www.w3.org/2000/svg" xmlns:xlink="http://www.w3.org/1999/xlink" x="0px" y="0px"
	 viewBox="0 0 2664.9 1463.1" style="enable-background:new 0 0 2664.9 1463.1;" xml:space="preserve">
<style type="text/css">
	.st0{fill:#07A3D7;}
</style>
<path class="st0" d="M2403.9,1183c-11.2,0-21.2,0-30.1-1.1c-19-1.1-37.9-2.2-56.9-2.2c-12.3,0-12.3,0-13.4-12.3l-17.9-203.1
	l-17.9-168.5l-12.3-103.8l-11.2-90.4l-20.1-140.6c-6.7-50.2-14.5-99.3-24.5-149.6c-1.1-7.8-1.1-8.9,7.8-10c34.6-6.7,70.3-10,106-10
	h12.3c5.6,1.1,8.9,4.5,10,11.2l4.5,77l31.2,416.3l15.6,190.8l10,109.4L2403.9,1183z M1035.6,291.3h20.1c10,0,12.3,3.3,12.3,13.4
	l8.9,135.1l20.1,280.1l12.3,146.2l8.9,112.7L1136,1173c0,8.9-1.1,10-10,10l-80.4-3.3c-5.6,1.1-8.9-2.2-8.9-7.8l-3.3-39.1
	c-3.3-33.5-6.7-67-8.9-101.6l-17.9-176.3l-19-159.6l-13.4-112.7l-14.5-102.7c-6.7-45.8-14.5-92.6-22.3-138.4l-5.6-31.2
	c-1.1-5.6,0-7.8,5.6-8.9C968.6,295.7,998.8,290.2,1035.6,291.3L1035.6,291.3z M2158.4,741.1c27.9,0,31.2,1.1,35.7,27.9
	c5.6,33.5,10,67,13.4,100.4l12.3,108.3l23.4,229.9c1.1,5.6,0,7.8-5.6,7.8l-87.1,10c-8.9,1.1-11.2,0-12.3-8.9L2088,959.8L2056.8,789
	l-4.5-23.4c-1.1-4.5,1.1-7.8,5.6-8.9C2092.5,748.9,2126,743.3,2158.4,741.1L2158.4,741.1z M889.4,741.1c30.1-1.1,33.5,2.2,36.8,30.1
	c7.8,45.8,13.4,90.4,17.9,136.2l14.5,133.9l8.9,90.4l7.8,72.5c0,10-1.1,12.3-10,13.4l-82.6,7.8c-8.9,1.1-11.2,0-12.3-8.9L802.3,866
	l-17.9-99.3c-1.1-5.6,1.1-8.9,6.7-10C825.8,748.9,858.1,743.3,889.4,741.1L889.4,741.1z M1315.7,1087v142.9c1.1,6.7-2.2,10-8.9,8.9
	H1280c-19,0-37.9,1.1-56.9,2.2c-10,1.1-11.2,1.1-12.3-11.2L1193,1029l-8.9-99.3l-13.4-151.8c-1.1-12.3,1.1-14.5,11.2-15.6
	c31.3-3.3,62.5-3.3,93.8-2.2l23.4,3.3c8.9,3.3,10,4.5,10,13.4l3.3,60.3l1.1,67C1314.6,965.4,1315.7,1025.6,1315.7,1087L1315.7,1087z
	 M2582.5,1093.7V1231c0,5.6-2.2,8.9-7.8,7.8h-40.2c-15.6,0-31.3,1.1-45.8,2.2c-8.9,1.1-10,0-11.2-10l-23.4-261.2l-12.3-129.5
	l-4.5-65.8c-1.1-8.9,1.1-11.2,10-11.2c36.8-4.5,74.8-5.6,111.6-1.1c14.5,1.1,16.7,5.6,17.9,20.1l3.3,148.4L2582.5,1093.7z
	 M2126,503.3c11.2,0,21.2,1.1,29,2.2c5.6,1.1,7.8,3.3,8.9,8.9l14.5,155.1c3.3,13.4,1.1,15.6-12.3,15.6l-37.9,2.2
	c-7.8,1.1-11.2,2.2-11.2-10l-15.6-126.1l-4.5-35.7c-1.1-6.7,1.1-10,7.8-11.2L2126,503.3z M861.5,503.3c8.9,0,17.9,1.1,25.7,2.2
	c4.5,1.1,6.7,3.3,7.8,8.9l4.5,39.1l11.2,121.6c1.1,8.9,1.1,10-7.8,10l-43.5,2.2c-8.9,1.1-10,0-11.2-8.9l-10-89.3l-8.9-74.8
	c-1.1-5.6,1.1-8.9,6.7-8.9C843.6,504.4,852.6,503.3,861.5,503.3L861.5,503.3z M1306.8,614.9v77c1.1,12.3-1.1,12.3-11.2,12.3
	c-14.5,0-27.9-1.1-41.3-2.2c-8.9-1.1-10-1.1-8.9-10l-3.3-94.9c0-21.2,0-42.4-1.1-63.6c-1.1-10,0-11.2,10-11.2
	c15.6,0,31.2,1.1,46.9,3.3c8.9,0,8.9,2.2,8.9,11.2V614.9z M2574.6,616v77c0,10-1.1,11.2-11.2,11.2l-42.4-2.2c-6.7-1.1-10-4.5-8.9-10
	l-3.3-159.6c0-8.9,1.1-10,10-10c14.5,0,27.9,1.1,41.3,2.2c16.7,1.1,14.5,4.5,14.5,16.7L2574.6,616z M826.9,676.3
	c1.1,13.4,0,15.6-13.4,16.7l-26.8,6.7c-8.9,3.3-10,1.1-11.2-6.7l-27.9-157.4c-3.3-10-1.1-12.3,8.9-13.4l39.1-6.7
	c8.9-1.1,11.2-1.1,11.2,7.8c3.3,19,6.7,37.9,8.9,56.9l11.2,89.3L826.9,676.3z M2014.4,523.4c16.7-3.3,34.6-5.6,52.5-7.8
	c5.6-1.1,7.8,2.2,8.9,7.8l8.9,61.4c4.5,30.1,7.8,60.3,8.9,90.4v8.9c1.1,4.5-1.1,7.8-5.6,8.9l-35.7,7.8c-5.6,1.1-7.8-1.1-8.9-6.7
	l-29-166.3V523.4z M1222,644c0,17.9-1.1,34.6-2.2,50.2c0,5.6-2.2,7.8-7.8,8.9l-34.6,3.3c-5.6,1.1-7.8-2.2-7.8-7.8
	c-2.2-16.7-3.3-32.4-4.5-49.1c-2.2-30.1-4.5-61.4-5.6-92.6l-2.2-22.3c-1.1-4.5,1.1-6.7,5.6-6.7l45.8-3.3c7.8,0,10,1.1,10,10
	L1222,644z M2487.6,626.1c1.1,21.2,1.1,43.5,0,64.7c1.1,10-1.1,12.3-11.2,12.3l-31.3,3.3c-5.6,1.1-8.9-2.2-8.9-7.8
	c-1.1-27.9-3.3-56.9-5.6-84.8l-4.5-78.1c-1.1-5.6,1.1-7.8,5.6-7.8l44.7-3.3c7.8,0,8.9,1.1,8.9,10
	C2487.6,564.7,2488.7,596,2487.6,626.1L2487.6,626.1z M783.4,1006.7c17.9,21.2,21.2,44.6,13.4,70.3c-6.7,24.6-19,45.8-36.8,63.6
	c-29,30.1-62.5,54.7-99.3,73.7c-63.6,33.5-129.5,56.9-199.8,69.2c-50.2,10-100.4,16.7-150.7,20.1c-15.6,1.1-31.2,1.1-46.9,1.1h-33.5
	c-8.9,0-11.2-2.2-12.3-11.2l-7.8-108.3l-21.2-213.2l-23.4-203.1l-13.4-108.3l-14.5-103.8c-7.8-56.9-17.9-113.8-27.9-170.8
	c-7.8-45.8-15.6-91.5-25.7-137.3c-1.1-5.6,0-10,5.6-11.2L244.3,173c10-4.5,19-7.8,29-10c6.7-1.1,10,1.1,8.9,7.8
	c0,17.9,0,35.7-1.1,54.7l-1.1,14.5c-1.1,64.7-1.1,129.5,0,195.3c1.1,56.9,4.5,115,7.8,171.9c5.6,89.3,14.5,178.6,23.4,266.7
	c0,8.9,1.1,8.9,11.2,7.8c19-3.3,36.8-4.5,55.8-4.5c59.2,0,118.3,6.7,175.2,21.2c50.2,12.3,98.2,29,146.2,50.2
	c23.4,11.2,44.6,24.5,64.7,40.2C772.2,994.4,777.8,1000,783.4,1006.7L783.4,1006.7z M2041.2,996.6c23.4,19,31.2,44.6,24.5,74.8
	c-5.6,24.6-16.7,45.8-33.5,64.7c-26.8,30.1-58,53.6-92.6,72.5c-67,36.8-138.4,62.5-214.3,75.9c-41.3,7.8-82.6,14.5-123.9,17.9
	c-23.4,2.2-49.1,3.3-74.8,2.2h-30.1c-6.7,1.1-10-2.2-10-8.9c-2.2-31.2-4.5-62.5-7.8-93.7l-17.9-190.8l-19-166.3l-23.4-187.5
	c-3.3-32.4-7.8-65.9-13.4-98.2l-20.1-125c-8.9-59.1-20.1-118.3-32.4-177.5l-1.1-7.8c-2.2-5.6,0-10,5.6-11.2
	c54.7-22.3,108.3-46.9,162.9-68.1c14.5-5.6,32.4-12.3,31.3,1.1c-4.5,41.3-3.3,82.6-4.5,122.8c-1.1,33.5-1.1,67,1.1,99.3v25.7
	c0,40.2,1.1,80.4,4.5,119.4c2.2,52.5,5.6,106,10,158.5l10,112.7c1.1,21.2,3.3,41.3,6.7,62.5c0,12.3,2.2,11.2,12.3,10
	c20.1-3.3,40.2-4.5,60.3-4.5c70.3,1.1,138.4,12.3,205.3,31.2c45.8,12.3,89.3,29,131.7,51.3C2007.7,969.8,2024.4,982.1,2041.2,996.6
	L2041.2,996.6z M427.3,1193.1c16.7-10,45.8-30.1,85.9-61.4c40.2-32.4,64.7-53.6,74.8-64.7c-60.3-26.8-122.8-50.2-187.5-71.4
	L427.3,1193.1z M1852.6,1072.5c3.3-3.3,2.2-5.6-1.1-7.8l-26.8-11.2c-46.9-20.1-93.7-38-141.7-53.6l-6.7-2.2c-2.2-1.1-4.5,0-7.8,1.1
	l26.8,193.1c3.3,0,5.6-1.1,6.7-2.2c43.5-31.3,87.1-63.6,130.6-98.2L1852.6,1072.5z"/>
</svg>
